<?xml version="1.0" encoding="utf-8" standalone="no"?>
<!DOCTYPE svg PUBLIC "-//W3C//DTD SVG 1.1//EN"
  "http://www.w3.org/Graphics/SVG/1.1/DTD/svg11.dtd">
<svg xmlns:xlink="http://www.w3.org/1999/xlink" width="471.721172pt" height="350.129528pt" viewBox="0 0 471.721172 350.129528" xmlns="http://www.w3.org/2000/svg" version="1.1">
 <metadata>
  <rdf:RDF xmlns:dc="http://purl.org/dc/elements/1.1/" xmlns:cc="http://creativecommons.org/ns#" xmlns:rdf="http://www.w3.org/1999/02/22-rdf-syntax-ns#">
   <cc:Work>
    <dc:type rdf:resource="http://purl.org/dc/dcmitype/StillImage"/>
    <dc:date>2026-10-02T19:31:47.532565</dc:date>
    <dc:format>image/svg+xml</dc:format>
    <dc:creator>
     <cc:Agent>
      <dc:title>Matplotlib v3.10.8, https://matplotlib.org/</dc:title>
     </cc:Agent>
    </dc:creator>
   </cc:Work>
  </rdf:RDF>
 </metadata>
 <defs>
  <style type="text/css">*{stroke-linejoin: round; stroke-linecap: butt}</style>
 </defs>
 <g id="figure_1">
  <g id="patch_1">
   <path d="M 0 350.129528 
L 471.721172 350.129528 
L 471.721172 0 
L 0 0 
L 0 350.129528 
z
" style="fill: none"/>
  </g>
  <g id="axes_1">
   <g id="patch_2">
    <path d="M 21.721172 150.4649 
L 468.121172 150.4649 
L 468.121172 18.352559 
L 21.721172 18.352559 
L 21.721172 150.4649 
z
" style="fill: none"/>
   </g>
   <g id="matplotlib.axis_1">
    <g id="xtick_1">
     <g id="line2d_1">
      <defs>
       <path id="m5d46e5f103" d="M 0 0 
L 0 3.5 
" style="stroke: #1a1a1a; stroke-width: 0.7"/>
      </defs>
      <g>
       <use xlink:href="#m5d46e5f103" x="109.742515" y="150.4649" style="fill: #1a1a1a; stroke: #1a1a1a; stroke-width: 0.7"/>
      </g>
     </g>
    </g>
    <g id="xtick_2">
     <g id="line2d_2">
      <g>
       <use xlink:href="#m5d46e5f103" x="204.565122" y="150.4649" style="fill: #1a1a1a; stroke: #1a1a1a; stroke-width: 0.7"/>
      </g>
     </g>
    </g>
    <g id="xtick_3">
     <g id="line2d_3">
      <g>
       <use xlink:href="#m5d46e5f103" x="299.387729" y="150.4649" style="fill: #1a1a1a; stroke: #1a1a1a; stroke-width: 0.7"/>
      </g>
     </g>
    </g>
    <g id="xtick_4">
     <g id="line2d_4">
      <g>
       <use xlink:href="#m5d46e5f103" x="394.210336" y="150.4649" style="fill: #1a1a1a; stroke: #1a1a1a; stroke-width: 0.7"/>
      </g>
     </g>
    </g>
   </g>
   <g id="matplotlib.axis_2">
    <g id="ytick_1">
     <g id="line2d_5">
      <path d="M 21.721172 128.446176 
L 468.121172 128.446176 
" clip-path="url(#p783218555a)" style="fill: none; stroke: #e4e2dd; stroke-width: 0.8; stroke-linecap: square"/>
     </g>
     <g id="line2d_6"/>
     <g id="text_1">
      <!-- −2 -->
      <g style="fill: #6b6b6b" transform="translate(3.6 132.629301) scale(0.115 -0.115)">
       <defs>
        <path id="Inter-Regular-2212" d="M 3584 2091 
L 3584 1553 
L 656 1553 
L 656 2091 
L 3584 2091 
z
" transform="scale(0.015625)"/>
        <path id="Inter-Regular-32" d="M 481 0 
L 481 428 
L 2028 2106 
Q 2288 2388 2459 2600 
Q 2631 2813 2718 3005 
Q 2806 3197 2806 3413 
Q 2806 3778 2554 3990 
Q 2303 4203 1931 4203 
Q 1534 4203 1298 3965 
Q 1063 3728 1063 3334 
L 494 3334 
Q 494 3747 684 4059 
Q 875 4372 1203 4545 
Q 1531 4719 1947 4719 
Q 2363 4719 2683 4545 
Q 3003 4372 3186 4078 
Q 3369 3784 3369 3419 
Q 3369 3166 3278 2927 
Q 3188 2688 2959 2384 
Q 2731 2081 2319 1644 
L 1300 559 
L 1300 522 
L 3447 522 
L 3447 0 
L 481 0 
z
" transform="scale(0.015625)"/>
       </defs>
       <use xlink:href="#Inter-Regular-2212"/>
       <use xlink:href="#Inter-Regular-32" transform="translate(66.162109 0)"/>
      </g>
     </g>
    </g>
    <g id="ytick_2">
     <g id="line2d_7">
      <path d="M 21.721172 84.40873 
L 468.121172 84.40873 
" clip-path="url(#p783218555a)" style="fill: none; stroke: #e4e2dd; stroke-width: 0.8; stroke-linecap: square"/>
     </g>
     <g id="line2d_8"/>
     <g id="text_2">
      <!-- 0 -->
      <g style="fill: #6b6b6b" transform="translate(10.965391 88.591855) scale(0.115 -0.115)">
       <defs>
        <path id="Inter-Regular-30" d="M 2019 -63 
Q 1241 -63 811 562 
Q 381 1188 381 2325 
Q 381 3456 814 4087 
Q 1247 4719 2019 4719 
Q 2794 4719 3225 4087 
Q 3656 3456 3656 2325 
Q 3656 1188 3228 562 
Q 2800 -63 2019 -63 
z
M 2019 456 
Q 2531 456 2807 948 
Q 3084 1441 3084 2325 
Q 3084 3216 2807 3709 
Q 2531 4203 2019 4203 
Q 1509 4203 1231 3708 
Q 953 3213 953 2325 
Q 953 1441 1231 948 
Q 1509 456 2019 456 
z
" transform="scale(0.015625)"/>
       </defs>
       <use xlink:href="#Inter-Regular-30"/>
      </g>
     </g>
    </g>
    <g id="ytick_3">
     <g id="line2d_9">
      <path d="M 21.721172 40.371283 
L 468.121172 40.371283 
" clip-path="url(#p783218555a)" style="fill: none; stroke: #e4e2dd; stroke-width: 0.8; stroke-linecap: square"/>
     </g>
     <g id="line2d_10"/>
     <g id="text_3">
      <!-- 2 -->
      <g style="fill: #6b6b6b" transform="translate(11.207969 44.554408) scale(0.115 -0.115)">
       <use xlink:href="#Inter-Regular-32"/>
      </g>
     </g>
    </g>
   </g>
   <g id="patch_3">
    <path d="M 21.721172 56.885325 
L 468.121172 56.885325 
L 468.121172 -3.666164 
L 21.721172 -3.666164 
z
" clip-path="url(#p783218555a)" style="fill: #c8323c; opacity: 0.08"/>
   </g>
   <g id="patch_4">
    <path d="M 21.721172 172.483623 
L 468.121172 172.483623 
L 468.121172 111.932134 
L 21.721172 111.932134 
z
" clip-path="url(#p783218555a)" style="fill: #3b7dd8; opacity: 0.08"/>
   </g>
   <g id="line2d_11">
    <path d="M 21.721172 56.885325 
L 468.121172 56.885325 
" clip-path="url(#p783218555a)" style="fill: none; stroke-dasharray: 2.4,1.6; stroke-dashoffset: 0; stroke: #c8323c; stroke-width: 0.8"/>
   </g>
   <g id="line2d_12">
    <path d="M 21.721172 111.932134 
L 468.121172 111.932134 
" clip-path="url(#p783218555a)" style="fill: none; stroke-dasharray: 2.4,1.6; stroke-dashoffset: 0; stroke: #3b7dd8; stroke-width: 0.8"/>
   </g>
   <g id="line2d_13">
    <path d="M 21.721172 84.40873 
L 468.121172 84.40873 
" clip-path="url(#p783218555a)" style="fill: none; stroke: #8a8a8a; stroke-width: 0.8; stroke-linecap: square"/>
   </g>
   <g id="line2d_14">
    <path d="M 42.012081 96.942693 
L 42.576501 89.504729 
L 43.140922 91.303253 
L 43.705342 94.415203 
L 44.269762 95.824956 
L 44.834182 94.506809 
L 45.398603 96.704026 
L 45.963023 93.578526 
L 46.527443 93.366928 
L 47.091863 92.8984 
L 47.656284 95.668849 
L 48.220704 96.692616 
L 48.785124 102.63974 
L 49.349545 105.636513 
L 50.478385 101.240529 
L 51.042805 104.959564 
L 51.607226 100.623055 
L 52.171646 103.587018 
L 52.736066 103.957976 
L 53.300487 101.207682 
L 53.864907 94.40479 
L 54.429327 94.583697 
L 54.993747 97.992963 
L 55.558168 96.638577 
L 56.122588 90.329221 
L 56.687008 90.160141 
L 57.251429 88.613996 
L 58.380269 84.191159 
L 58.944689 85.721762 
L 59.50911 86.627808 
L 60.07353 88.871478 
L 60.63795 89.100077 
L 61.202371 87.65125 
L 61.766791 80.406959 
L 62.331211 78.06036 
L 62.895631 80.419624 
L 63.460052 82.24299 
L 65.153312 77.616127 
L 66.282153 78.267852 
L 66.846573 77.459472 
L 67.410994 79.7558 
L 68.539834 72.87327 
L 69.104254 83.881941 
L 69.668675 80.57248 
L 70.233095 80.732086 
L 70.797515 80.07004 
L 71.361936 75.220059 
L 71.926356 72.618909 
L 72.490776 70.866926 
L 73.055196 75.009593 
L 74.184037 81.39195 
L 74.748457 80.049369 
L 75.312878 82.733313 
L 75.877298 81.315313 
L 76.441718 79.524186 
L 77.006138 79.862706 
L 77.570559 82.71845 
L 78.134979 75.754572 
L 78.699399 75.42977 
L 79.263819 69.735016 
L 79.82824 68.26297 
L 80.39266 68.046396 
L 80.95708 66.715932 
L 81.521501 71.919956 
L 82.085921 68.520358 
L 82.650341 76.676032 
L 83.214761 71.899397 
L 83.779182 79.181444 
L 84.343602 77.86779 
L 84.908022 70.653418 
L 85.472443 72.241648 
L 86.036863 71.226171 
L 87.165703 68.569139 
L 88.294544 66.92644 
L 88.858964 75.635284 
L 89.423385 77.026214 
L 89.987805 84.320416 
L 90.552225 88.077044 
L 91.116645 82.468807 
L 91.681066 83.200019 
L 92.245486 90.416893 
L 92.809906 91.251247 
L 93.374327 85.461535 
L 93.938747 84.906003 
L 94.503167 87.840534 
L 95.067587 87.150992 
L 95.632008 83.542808 
L 96.196428 83.352253 
L 97.325268 50.49571 
L 97.889689 40.860463 
L 98.454109 45.979119 
L 99.018529 45.152339 
L 99.58295 40.722287 
L 100.14737 39.074842 
L 100.71179 40.076205 
L 101.27621 43.195468 
L 101.840631 41.969211 
L 102.405051 49.058677 
L 102.969471 43.940107 
L 103.533892 46.725614 
L 104.098312 59.449284 
L 104.662732 60.158657 
L 105.227152 66.0815 
L 105.791573 69.577071 
L 106.355993 57.388419 
L 106.920413 41.044655 
L 107.484834 39.756758 
L 108.049254 39.884638 
L 108.613674 41.704679 
L 109.178094 43.974956 
L 109.742515 50.999231 
L 110.306935 70.734751 
L 111.435775 79.35623 
L 112.000196 74.056046 
L 112.564616 71.661794 
L 113.129036 72.00799 
L 113.693457 73.122367 
L 114.257877 67.826028 
L 114.822297 78.244491 
L 115.386717 72.706772 
L 115.951138 56.78989 
L 116.515558 57.701333 
L 117.079978 55.524169 
L 117.644399 56.316099 
L 118.208819 57.802945 
L 118.773239 56.531195 
L 119.337659 54.282546 
L 119.90208 57.930034 
L 120.4665 45.07308 
L 121.03092 44.462578 
L 122.159761 49.261099 
L 122.724181 48.235512 
L 123.288601 48.358789 
L 123.853022 45.926654 
L 124.417442 45.247396 
L 124.981862 45.004608 
L 125.546283 41.527809 
L 126.110703 43.233595 
L 127.239543 55.780801 
L 127.803964 59.516859 
L 128.368384 59.725998 
L 128.932804 66.302966 
L 129.497224 66.510283 
L 130.061645 66.508228 
L 131.754906 83.34959 
L 132.319326 86.83597 
L 132.883746 93.730445 
L 133.448166 94.138425 
L 134.012587 96.051898 
L 134.577007 94.624203 
L 135.141427 97.35463 
L 135.705848 98.844309 
L 136.270268 98.084423 
L 136.834688 96.021405 
L 137.399108 96.535107 
L 137.963529 95.835015 
L 138.527949 95.491884 
L 139.092369 90.226868 
L 139.65679 88.276654 
L 140.22121 89.947223 
L 140.78563 88.66453 
L 141.35005 88.339587 
L 141.914471 89.801455 
L 142.478891 85.78823 
L 143.043311 85.024289 
L 143.607731 86.907224 
L 144.172152 90.655706 
L 144.736572 96.200789 
L 145.300992 96.60273 
L 145.865413 94.124439 
L 146.429833 94.354114 
L 146.994253 79.60995 
L 147.558673 83.160708 
L 148.123094 83.493032 
L 148.687514 80.834484 
L 149.251934 85.142523 
L 149.816355 85.328676 
L 150.380775 87.195777 
L 150.945195 82.761333 
L 151.509615 83.614117 
L 152.074036 79.12913 
L 153.202876 77.767221 
L 154.331717 74.876583 
L 154.896137 75.341893 
L 155.460557 73.649243 
L 156.024978 74.242737 
L 156.589398 76.759663 
L 157.153818 86.056199 
L 157.718239 91.16885 
L 158.282659 89.958848 
L 158.847079 84.247368 
L 159.411499 83.627708 
L 159.97592 73.949429 
L 160.54034 66.808425 
L 161.10476 67.318184 
L 161.66918 63.008397 
L 162.233601 63.556994 
L 162.798021 66.355772 
L 163.362441 62.618979 
L 163.926862 62.277368 
L 164.491282 68.023141 
L 165.055702 71.457308 
L 165.620122 68.852015 
L 166.184543 66.816266 
L 166.748963 65.226992 
L 167.313383 67.955209 
L 167.877804 69.314502 
L 168.442224 62.812404 
L 169.006644 57.837888 
L 169.571064 62.074166 
L 170.135485 65.203302 
L 171.264325 69.647981 
L 171.828746 66.300364 
L 172.393166 67.704177 
L 172.957586 70.565227 
L 173.522006 64.215004 
L 174.086427 63.114295 
L 174.650847 61.319728 
L 175.215267 58.989704 
L 175.779687 58.974296 
L 176.344108 57.221282 
L 176.908528 62.470828 
L 177.472948 60.01323 
L 178.037369 51.944413 
L 178.601789 51.216368 
L 179.166209 51.979366 
L 179.730629 54.04262 
L 180.29505 54.468723 
L 180.85947 55.276778 
L 181.42389 52.09763 
L 181.988311 42.432862 
L 182.552731 46.85254 
L 183.117151 48.669422 
L 183.681571 48.781791 
L 184.245992 53.399469 
L 184.810412 53.506914 
L 185.374832 52.873363 
L 185.939253 55.185899 
L 186.503673 54.035471 
L 187.068093 53.805155 
L 187.632513 56.411668 
L 188.196934 57.180416 
L 189.325774 50.76397 
L 190.454615 54.184901 
L 191.019035 51.850086 
L 191.583455 51.903244 
L 192.712296 48.545377 
L 193.276716 46.731321 
L 193.841136 49.16603 
L 194.405557 52.809078 
L 194.969977 55.018115 
L 196.098818 68.24745 
L 196.663238 68.14818 
L 197.227658 69.993695 
L 198.356499 72.266639 
L 198.920919 70.217173 
L 199.485339 67.458348 
L 200.04976 69.432597 
L 200.61418 65.002945 
L 201.1786 62.076964 
L 201.74302 64.67383 
L 202.307441 67.798072 
L 202.871861 68.073971 
L 203.436281 66.223454 
L 204.000702 69.033167 
L 204.565122 72.739883 
L 205.129542 72.884281 
L 205.693962 71.343081 
L 206.258383 71.894102 
L 207.387223 76.958139 
L 207.951643 76.760749 
L 208.516064 79.049318 
L 209.080484 76.155627 
L 209.644904 71.224518 
L 210.209325 76.447203 
L 210.773745 77.318524 
L 211.338165 76.999293 
L 211.902585 80.868865 
L 212.467006 88.082753 
L 213.031426 88.681304 
L 213.595846 86.437127 
L 214.160267 88.317994 
L 214.724687 85.906898 
L 215.289107 85.729027 
L 215.853527 82.900246 
L 216.417948 83.253431 
L 216.982368 83.462146 
L 218.111209 86.798482 
L 218.675629 85.633015 
L 219.240049 87.520094 
L 219.804469 90.06968 
L 220.36889 88.615134 
L 220.93331 89.816509 
L 222.062151 89.351429 
L 222.626571 89.794003 
L 223.190991 88.153164 
L 223.755411 91.860867 
L 224.319832 97.110548 
L 224.884252 96.66892 
L 225.448672 97.25097 
L 226.013092 98.973267 
L 227.141933 101.263444 
L 227.706353 103.520617 
L 229.399614 106.236988 
L 229.964034 107.657296 
L 230.528455 107.76024 
L 231.092875 108.091006 
L 231.657295 106.14543 
L 232.221716 102.03151 
L 232.786136 98.941625 
L 233.350556 95.125795 
L 233.914976 92.295405 
L 234.479397 87.652636 
L 235.043817 91.042846 
L 235.608237 95.417061 
L 236.172658 93.602204 
L 237.301498 100.039405 
L 237.865918 99.833539 
L 238.430339 98.440034 
L 238.994759 100.506986 
L 239.559179 99.030144 
L 240.123599 101.452878 
L 240.68802 102.339134 
L 241.25244 101.273436 
L 241.81686 96.950019 
L 242.381281 96.790219 
L 242.945701 95.83375 
L 243.510121 93.209187 
L 244.074541 92.836048 
L 244.638962 94.46288 
L 245.203382 93.006806 
L 245.767802 93.387717 
L 246.332223 92.661955 
L 247.461063 87.421803 
L 248.025483 90.379295 
L 249.154324 86.282954 
L 250.283165 97.126426 
L 250.847585 89.87506 
L 251.412005 75.911724 
L 251.976425 70.867323 
L 252.540846 72.926178 
L 253.105266 66.240526 
L 253.669686 63.110319 
L 254.234107 61.74077 
L 254.798527 63.363538 
L 255.362947 61.121011 
L 255.927367 57.787715 
L 256.491788 49.26248 
L 257.056208 45.7485 
L 257.620628 52.709153 
L 258.185048 57.673384 
L 258.749469 57.846475 
L 259.313889 58.603596 
L 259.878309 59.809999 
L 260.44273 55.994714 
L 261.00715 53.13611 
L 261.57157 53.133045 
L 262.13599 49.809193 
L 262.700411 50.409386 
L 263.264831 50.566203 
L 263.829251 53.8367 
L 264.393672 51.280989 
L 264.958092 51.161617 
L 266.086932 55.528372 
L 266.651353 67.373796 
L 267.215773 73.996403 
L 268.344614 89.211835 
L 268.909034 87.526654 
L 269.473454 92.92128 
L 270.037874 92.809337 
L 270.602295 96.640403 
L 271.166715 90.169958 
L 271.731135 89.140406 
L 272.295555 94.09105 
L 272.859976 93.927977 
L 273.424396 91.875234 
L 274.553237 94.167793 
L 275.117657 96.859007 
L 275.682077 98.654912 
L 276.246497 102.815594 
L 276.810918 106.072744 
L 277.375338 108.205001 
L 277.939758 107.457174 
L 278.504179 111.356189 
L 279.068599 110.700486 
L 279.633019 114.667759 
L 280.197439 112.964797 
L 280.76186 105.131449 
L 281.32628 100.852219 
L 281.8907 90.363585 
L 282.455121 91.311685 
L 283.019541 90.496408 
L 283.583961 89.390397 
L 284.148381 98.301275 
L 284.712802 95.056157 
L 285.277222 100.30653 
L 285.841642 99.694905 
L 286.406063 93.131191 
L 286.970483 89.510104 
L 288.099323 90.20589 
L 288.663744 90.903552 
L 289.228164 92.733588 
L 290.357004 100.51805 
L 290.921425 100.749676 
L 291.485845 102.078435 
L 292.050265 100.616262 
L 292.614686 106.311234 
L 293.179106 108.934107 
L 293.743526 112.984962 
L 294.307946 114.468551 
L 294.872367 110.544301 
L 295.436787 110.650244 
L 296.001207 107.763838 
L 296.565628 98.346186 
L 297.694468 106.944546 
L 298.258888 105.406102 
L 298.823309 106.899862 
L 299.387729 106.579517 
L 299.952149 104.032713 
L 300.51657 103.387972 
L 301.08099 76.205759 
L 301.64541 80.666486 
L 302.20983 80.487821 
L 302.774251 82.884501 
L 303.338671 69.469059 
L 303.903091 69.450825 
L 304.467511 59.774647 
L 305.031932 59.813056 
L 306.160772 71.411581 
L 306.725193 71.934449 
L 307.289613 70.233498 
L 307.854033 75.364085 
L 308.418453 78.664637 
L 308.982874 74.871891 
L 309.547294 72.476931 
L 310.111714 73.247967 
L 310.676135 72.821378 
L 311.240555 68.769046 
L 311.804975 73.255535 
L 312.369395 76.771558 
L 312.933816 78.069785 
L 313.498236 81.546147 
L 314.062656 77.314134 
L 314.627077 80.348028 
L 315.191497 91.493321 
L 315.755917 85.128296 
L 316.320337 85.616807 
L 316.884758 88.206312 
L 317.449178 86.469704 
L 318.013598 97.462194 
L 318.578019 99.724663 
L 319.142439 96.972503 
L 320.271279 102.562713 
L 320.8357 103.389194 
L 321.96454 108.566168 
L 322.52896 106.878732 
L 323.093381 101.513705 
L 323.657801 93.251738 
L 324.222221 88.019826 
L 324.786642 80.886868 
L 325.351062 83.334665 
L 325.915482 81.454877 
L 327.044323 72.745075 
L 327.608743 71.69946 
L 328.173163 71.439109 
L 328.737584 75.411844 
L 329.302004 77.700643 
L 330.430844 84.471331 
L 330.995265 94.873084 
L 331.559685 97.815557 
L 332.124105 90.945233 
L 332.688526 92.510241 
L 333.252946 95.408759 
L 333.817366 95.668078 
L 334.381786 95.557055 
L 334.946207 94.534303 
L 335.510627 91.296201 
L 336.075047 89.04741 
L 336.639467 88.083643 
L 337.203888 89.947544 
L 337.768308 88.286571 
L 338.332728 91.238665 
L 338.897149 82.086292 
L 339.461569 80.213531 
L 340.025989 77.377039 
L 340.590409 73.835848 
L 341.15483 75.702294 
L 341.71925 73.867091 
L 342.28367 68.769113 
L 342.848091 71.939688 
L 343.976931 75.156712 
L 344.541351 73.040011 
L 345.105772 67.643863 
L 345.670192 72.55815 
L 346.234612 71.410063 
L 346.799033 72.634953 
L 347.363453 78.789115 
L 347.927873 81.143609 
L 349.056714 73.72212 
L 349.621134 73.951213 
L 350.185554 73.039764 
L 350.749975 73.122596 
L 351.314395 76.184144 
L 351.878815 78.494971 
L 352.443235 74.525644 
L 353.007656 73.859701 
L 353.572076 75.551761 
L 354.136496 77.817019 
L 354.700916 81.911823 
L 355.265337 82.762177 
L 355.829757 83.977753 
L 356.394177 84.364789 
L 357.523018 82.438682 
L 358.087438 83.888647 
L 358.651858 81.709047 
L 359.216279 86.514173 
L 359.780699 88.178863 
L 360.345119 89.2494 
L 360.90954 88.824057 
L 361.47396 84.06557 
L 362.03838 83.969758 
L 362.6028 84.780211 
L 363.167221 81.49328 
L 363.731641 80.876247 
L 364.296061 81.182304 
L 364.860482 76.630171 
L 365.424902 76.766669 
L 365.989322 78.037252 
L 366.553742 81.859454 
L 367.118163 79.501202 
L 367.682583 79.870166 
L 368.247003 83.704138 
L 368.811423 82.127548 
L 369.375844 74.825372 
L 369.940264 72.470105 
L 370.504684 75.231296 
L 371.069105 76.200456 
L 371.633525 76.406151 
L 372.197945 80.295742 
L 372.762365 82.282435 
L 373.326786 83.207599 
L 373.891206 83.894714 
L 374.455626 82.965946 
L 375.020047 72.202579 
L 375.584467 73.148656 
L 376.148887 72.780844 
L 376.713307 72.664252 
L 377.277728 72.089402 
L 377.842148 73.097864 
L 378.970989 71.922877 
L 379.535409 74.751291 
L 380.099829 74.795277 
L 380.664249 75.963989 
L 381.22867 85.323605 
L 381.79309 90.501735 
L 382.35751 88.548038 
L 382.921931 85.63082 
L 383.486351 86.341074 
L 384.050771 88.055035 
L 384.615191 87.991807 
L 385.179612 89.708804 
L 385.744032 88.972732 
L 386.308452 91.462942 
L 386.872872 94.928714 
L 387.437293 93.191966 
L 388.001713 92.327409 
L 388.566133 90.570946 
L 389.130554 90.430232 
L 389.694974 91.551388 
L 390.259394 89.505268 
L 390.823814 89.111748 
L 391.388235 86.908247 
L 391.952655 85.545374 
L 393.081496 90.20652 
L 393.645916 89.687438 
L 394.210336 91.212346 
L 394.774756 91.640253 
L 395.339177 92.432505 
L 395.903597 90.47321 
L 396.468017 89.600146 
L 397.032438 88.121065 
L 397.596858 85.854092 
L 398.161278 85.530798 
L 398.725698 83.38833 
L 399.290119 82.099447 
L 399.854539 80.403212 
L 400.418959 81.802941 
L 400.983379 81.682108 
L 402.11222 90.769309 
L 403.241061 102.321396 
L 403.805481 100.166924 
L 404.369901 102.748123 
L 405.498742 105.716151 
L 406.063162 103.213155 
L 406.627582 101.696086 
L 407.192003 103.901489 
L 407.756423 104.809216 
L 408.320843 103.762868 
L 408.885263 104.899142 
L 409.449684 104.926844 
L 410.014104 107.255447 
L 410.578524 111.924098 
L 411.142945 102.878973 
L 411.707365 104.184098 
L 412.271785 106.440043 
L 412.836205 105.43799 
L 413.400626 107.01779 
L 413.965046 107.605141 
L 414.529466 106.095119 
L 415.093887 105.820689 
L 415.658307 102.224918 
L 416.222727 100.610277 
L 416.787147 96.459538 
L 417.351568 99.168909 
L 418.480408 97.860202 
L 419.044828 100.647437 
L 419.609249 98.938841 
L 420.173669 102.134218 
L 420.738089 103.770638 
L 421.30251 99.789931 
L 421.86693 98.14337 
L 422.43135 97.962949 
L 422.99577 99.442264 
L 423.560191 99.824318 
L 424.124611 99.169694 
L 424.689031 101.632553 
L 425.253452 103.591244 
L 425.817872 105.056381 
L 426.382292 105.109108 
L 426.946712 102.725838 
L 427.511133 110.186102 
L 428.075553 110.289172 
L 428.639973 111.636191 
L 429.204394 110.832251 
L 429.768814 112.238982 
L 430.333234 111.005101 
L 430.897654 111.16287 
L 431.462075 105.353934 
L 432.590915 107.449496 
L 433.155335 104.910961 
L 433.719756 109.66982 
L 434.284176 112.627222 
L 434.848596 112.811556 
L 435.413017 105.692754 
L 435.977437 101.648805 
L 436.541857 99.961038 
L 437.106277 99.808654 
L 438.235118 104.592148 
L 438.799538 103.637455 
L 439.363959 96.373431 
L 439.928379 94.239233 
L 440.492799 93.912156 
L 441.057219 90.708581 
L 441.62164 92.220187 
L 442.18606 91.965257 
L 442.75048 92.675224 
L 443.314901 92.157044 
L 443.879321 90.215547 
L 444.443741 89.764539 
L 445.008161 91.807588 
L 445.572582 93.274279 
L 446.137002 91.571515 
L 446.701422 95.61777 
L 447.265843 94.93703 
L 447.830263 93.564696 
L 447.830263 93.564696 
" clip-path="url(#p783218555a)" style="fill: none; stroke: #1a1a1a; stroke-width: 1.1; stroke-linecap: square"/>
   </g>
   <g id="patch_5">
    <path d="M 21.721172 150.4649 
L 468.121172 150.4649 
" style="fill: none; stroke: #1a1a1a; stroke-width: 0.8; stroke-linejoin: miter; stroke-linecap: square"/>
   </g>
   <g id="text_4">
    <!-- BTC -->
    <g style="fill: #1a1a1a" transform="translate(21.721172 13.0575) scale(0.13 -0.13)">
     <defs>
      <path id="Inter-SemiBold-42" d="M 469 0 
L 469 4656 
L 2250 4656 
Q 2753 4656 3086 4498 
Q 3419 4341 3586 4067 
Q 3753 3794 3753 3447 
Q 3753 3022 3517 2778 
Q 3281 2534 2941 2456 
L 2941 2409 
Q 3188 2397 3416 2259 
Q 3644 2122 3789 1872 
Q 3934 1622 3934 1269 
Q 3934 906 3759 618 
Q 3584 331 3232 165 
Q 2881 0 2347 0 
L 469 0 
z
M 1303 697 
L 2216 697 
Q 2678 697 2883 875 
Q 3088 1053 3088 1331 
Q 3088 1644 2859 1856 
Q 2631 2069 2244 2069 
L 1303 2069 
L 1303 697 
z
M 1303 2672 
L 2144 2672 
Q 2475 2672 2697 2851 
Q 2919 3031 2919 3341 
Q 2919 3613 2728 3788 
Q 2538 3963 2163 3963 
L 1303 3963 
L 1303 2672 
z
" transform="scale(0.015625)"/>
      <path id="Inter-SemiBold-54" d="M 259 3953 
L 259 4656 
L 3966 4656 
L 3966 3953 
L 2531 3953 
L 2531 0 
L 1697 0 
L 1697 3953 
L 259 3953 
z
" transform="scale(0.015625)"/>
      <path id="Inter-SemiBold-43" d="M 2453 -63 
Q 1841 -63 1359 221 
Q 878 506 600 1040 
Q 322 1575 322 2325 
Q 322 3078 601 3614 
Q 881 4150 1362 4434 
Q 1844 4719 2453 4719 
Q 2963 4719 3380 4528 
Q 3797 4338 4069 3977 
Q 4341 3616 4416 3106 
L 3575 3106 
Q 3497 3519 3190 3745 
Q 2884 3972 2466 3972 
Q 1894 3972 1526 3545 
Q 1159 3119 1159 2325 
Q 1159 1522 1528 1103 
Q 1897 684 2463 684 
Q 2881 684 3189 911 
Q 3497 1138 3575 1550 
L 4419 1550 
Q 4353 1103 4097 737 
Q 3841 372 3422 154 
Q 3003 -63 2453 -63 
z
" transform="scale(0.015625)"/>
     </defs>
     <use xlink:href="#Inter-SemiBold-42"/>
     <use xlink:href="#Inter-SemiBold-54" transform="translate(65.917969 0)"/>
     <use xlink:href="#Inter-SemiBold-43" transform="translate(131.933594 0)"/>
    </g>
   </g>
   <g id="text_5">
    <!-- short zone above +1.25  ·  long zone below −1.25 -->
    <g style="fill: #6b6b6b" transform="translate(213.550234 13.336719) scale(0.11 -0.11)">
     <defs>
      <path id="Inter-Regular-73" d="M 1681 -75 
Q 1144 -75 787 159 
Q 431 394 338 847 
L 872 975 
Q 947 688 1155 553 
Q 1363 419 1675 419 
Q 2041 419 2258 575 
Q 2475 731 2475 947 
Q 2475 1306 1963 1428 
L 1381 1566 
Q 444 1788 444 2519 
Q 444 2819 612 3048 
Q 781 3278 1073 3408 
Q 1366 3538 1738 3538 
Q 2278 3538 2576 3302 
Q 2875 3066 2994 2697 
L 2484 2566 
Q 2413 2753 2245 2906 
Q 2078 3059 1741 3059 
Q 1428 3059 1220 2915 
Q 1013 2772 1013 2553 
Q 1013 2359 1153 2242 
Q 1294 2125 1600 2053 
L 2128 1928 
Q 2603 1816 2831 1580 
Q 3059 1344 3059 984 
Q 3059 678 2886 439 
Q 2713 200 2402 62 
Q 2091 -75 1681 -75 
z
" transform="scale(0.015625)"/>
      <path id="Inter-Regular-68" d="M 1056 2094 
L 1056 0 
L 494 0 
L 494 4656 
L 1056 4656 
L 1056 2888 
Q 1228 3238 1495 3388 
Q 1763 3538 2106 3538 
Q 2638 3538 2964 3209 
Q 3291 2881 3291 2219 
L 3291 0 
L 2725 0 
L 2725 2172 
Q 2725 2575 2514 2803 
Q 2303 3031 1938 3031 
Q 1559 3031 1307 2786 
Q 1056 2541 1056 2094 
z
" transform="scale(0.015625)"/>
      <path id="Inter-Regular-6f" d="M 1916 -75 
Q 1441 -75 1083 150 
Q 725 375 525 781 
Q 325 1188 325 1725 
Q 325 2272 525 2680 
Q 725 3088 1083 3313 
Q 1441 3538 1916 3538 
Q 2394 3538 2753 3313 
Q 3113 3088 3313 2680 
Q 3513 2272 3513 1725 
Q 3513 1188 3313 781 
Q 3113 375 2753 150 
Q 2394 -75 1916 -75 
z
M 1916 428 
Q 2269 428 2497 609 
Q 2725 791 2834 1086 
Q 2944 1381 2944 1725 
Q 2944 2072 2834 2370 
Q 2725 2669 2497 2851 
Q 2269 3034 1916 3034 
Q 1566 3034 1341 2851 
Q 1116 2669 1006 2372 
Q 897 2075 897 1725 
Q 897 1381 1006 1086 
Q 1116 791 1341 609 
Q 1566 428 1916 428 
z
" transform="scale(0.015625)"/>
      <path id="Inter-Regular-72" d="M 494 0 
L 494 3494 
L 1038 3494 
L 1038 2956 
L 1075 2956 
Q 1172 3222 1420 3383 
Q 1669 3544 1981 3544 
Q 2044 3544 2130 3541 
Q 2216 3538 2266 3534 
L 2266 2969 
Q 2241 2975 2141 2987 
Q 2041 3000 1928 3000 
Q 1550 3000 1303 2770 
Q 1056 2541 1056 2188 
L 1056 0 
L 494 0 
z
" transform="scale(0.015625)"/>
      <path id="Inter-Regular-74" d="M 1869 3494 
L 1869 3013 
L 1150 3013 
L 1150 906 
Q 1150 672 1245 564 
Q 1341 456 1563 456 
Q 1616 456 1698 468 
Q 1781 481 1850 494 
L 1966 19 
Q 1878 -13 1767 -28 
Q 1656 -44 1547 -44 
Q 1094 -44 841 195 
Q 588 434 588 863 
L 588 3013 
L 63 3013 
L 63 3494 
L 588 3494 
L 588 4325 
L 1150 4325 
L 1150 3494 
L 1869 3494 
z
" transform="scale(0.015625)"/>
      <path id="Inter-Regular-20" transform="scale(0.015625)"/>
      <path id="Inter-Regular-7a" d="M 394 0 
L 394 419 
L 2353 2938 
L 2353 2972 
L 456 2972 
L 456 3494 
L 3078 3494 
L 3078 3047 
L 1175 556 
L 1175 522 
L 3141 522 
L 3141 0 
L 394 0 
z
" transform="scale(0.015625)"/>
      <path id="Inter-Regular-6e" d="M 1056 2094 
L 1056 0 
L 494 0 
L 494 3494 
L 1034 3494 
L 1038 2847 
Q 1206 3219 1479 3378 
Q 1753 3538 2106 3538 
Q 2638 3538 2963 3209 
Q 3288 2881 3288 2219 
L 3288 0 
L 2725 0 
L 2725 2172 
Q 2725 2575 2514 2803 
Q 2303 3031 1938 3031 
Q 1559 3031 1307 2786 
Q 1056 2541 1056 2094 
z
" transform="scale(0.015625)"/>
      <path id="Inter-Regular-65" d="M 1963 -75 
Q 1456 -75 1089 150 
Q 722 375 523 778 
Q 325 1181 325 1719 
Q 325 2256 519 2665 
Q 713 3075 1067 3306 
Q 1422 3538 1897 3538 
Q 2175 3538 2445 3445 
Q 2716 3353 2936 3148 
Q 3156 2944 3287 2609 
Q 3419 2275 3419 1791 
L 3419 1556 
L 894 1556 
Q 916 1009 1208 717 
Q 1500 425 1966 425 
Q 2275 425 2498 561 
Q 2722 697 2819 963 
L 3363 813 
Q 3241 416 2870 170 
Q 2500 -75 1963 -75 
z
M 897 2031 
L 2847 2031 
Q 2806 2478 2567 2758 
Q 2328 3038 1897 3038 
Q 1597 3038 1380 2897 
Q 1163 2756 1038 2528 
Q 913 2300 897 2031 
z
" transform="scale(0.015625)"/>
      <path id="Inter-Regular-61" d="M 1472 -81 
Q 1141 -81 870 44 
Q 600 169 440 409 
Q 281 650 281 994 
Q 281 1294 400 1481 
Q 519 1669 717 1776 
Q 916 1884 1156 1937 
Q 1397 1991 1641 2022 
Q 1953 2063 2150 2084 
Q 2347 2106 2442 2159 
Q 2538 2213 2538 2341 
L 2538 2359 
Q 2538 2684 2353 2864 
Q 2169 3044 1806 3044 
Q 1428 3044 1215 2880 
Q 1003 2716 922 2531 
L 381 2709 
Q 516 3028 744 3208 
Q 972 3388 1247 3463 
Q 1522 3538 1791 3538 
Q 1966 3538 2189 3495 
Q 2413 3453 2620 3328 
Q 2828 3203 2964 2958 
Q 3100 2713 3100 2303 
L 3100 0 
L 2547 0 
L 2547 475 
L 2509 475 
Q 2450 353 2319 223 
Q 2188 94 1978 6 
Q 1769 -81 1472 -81 
z
M 1569 416 
Q 1881 416 2097 537 
Q 2313 659 2425 854 
Q 2538 1050 2538 1263 
L 2538 1747 
Q 2503 1706 2387 1673 
Q 2272 1641 2123 1616 
Q 1975 1591 1836 1573 
Q 1697 1556 1616 1547 
Q 1413 1522 1236 1461 
Q 1059 1400 953 1283 
Q 847 1166 847 966 
Q 847 694 1051 555 
Q 1256 416 1569 416 
z
" transform="scale(0.015625)"/>
      <path id="Inter-Regular-62" d="M 2116 -75 
Q 1784 -75 1581 39 
Q 1378 153 1268 298 
Q 1159 444 1100 541 
L 1038 541 
L 1038 0 
L 494 0 
L 494 4656 
L 1056 4656 
L 1056 2934 
L 1100 2934 
Q 1159 3028 1265 3170 
Q 1372 3313 1572 3425 
Q 1772 3538 2113 3538 
Q 2550 3538 2883 3319 
Q 3216 3100 3405 2695 
Q 3594 2291 3594 1738 
Q 3594 1181 3406 775 
Q 3219 369 2886 147 
Q 2553 -75 2116 -75 
z
M 2031 428 
Q 2359 428 2579 604 
Q 2800 781 2911 1079 
Q 3022 1378 3022 1744 
Q 3022 2106 2912 2398 
Q 2803 2691 2583 2862 
Q 2363 3034 2031 3034 
Q 1550 3034 1300 2678 
Q 1050 2322 1050 1744 
Q 1050 1159 1303 793 
Q 1556 428 2031 428 
z
" transform="scale(0.015625)"/>
      <path id="Inter-Regular-76" d="M 1503 0 
L 169 3494 
L 784 3494 
L 1528 1422 
Q 1609 1194 1675 967 
Q 1741 741 1800 522 
Q 1859 741 1923 967 
Q 1988 1194 2069 1422 
L 2813 3494 
L 3428 3494 
L 2094 0 
L 1503 0 
z
" transform="scale(0.015625)"/>
      <path id="Inter-Regular-2b" d="M 1853 313 
L 1853 1575 
L 609 1575 
L 609 2072 
L 1853 2072 
L 1853 3331 
L 2381 3331 
L 2381 2072 
L 3625 2072 
L 3625 1575 
L 2381 1575 
L 2381 313 
L 1853 313 
z
" transform="scale(0.015625)"/>
      <path id="Inter-Regular-31" d="M 2041 4656 
L 2041 0 
L 1456 0 
L 1456 4106 
L 1425 4106 
L 300 3272 
L 300 3909 
L 1313 4656 
L 2041 4656 
z
" transform="scale(0.015625)"/>
      <path id="Inter-Regular-2e" d="M 922 -41 
Q 747 -41 623 82 
Q 500 206 500 381 
Q 500 556 623 679 
Q 747 803 922 803 
Q 1097 803 1220 679 
Q 1344 556 1344 381 
Q 1344 206 1220 82 
Q 1097 -41 922 -41 
z
" transform="scale(0.015625)"/>
      <path id="Inter-Regular-35" d="M 1956 -63 
Q 1547 -63 1222 98 
Q 897 259 703 539 
Q 509 819 494 1175 
L 1069 1175 
Q 1097 863 1351 661 
Q 1606 459 1956 459 
Q 2238 459 2458 590 
Q 2678 722 2803 953 
Q 2928 1184 2928 1478 
Q 2928 1778 2797 2015 
Q 2666 2253 2439 2389 
Q 2213 2525 1919 2525 
Q 1703 2525 1481 2456 
Q 1259 2388 1122 2281 
L 566 2350 
L 841 4656 
L 3291 4656 
L 3291 4134 
L 1341 4134 
L 1181 2775 
L 1206 2775 
Q 1350 2894 1569 2970 
Q 1788 3047 2028 3047 
Q 2456 3047 2790 2845 
Q 3125 2644 3317 2291 
Q 3509 1938 3509 1488 
Q 3509 1041 3307 691 
Q 3106 341 2756 139 
Q 2406 -63 1956 -63 
z
" transform="scale(0.015625)"/>
      <path id="Inter-Regular-b7" d="M 922 1815 
Q 747 1815 623 1938 
Q 500 2062 500 2237 
Q 500 2412 623 2535 
Q 747 2659 922 2659 
Q 1097 2659 1220 2535 
Q 1344 2412 1344 2237 
Q 1344 2062 1220 1938 
Q 1097 1815 922 1815 
z
" transform="scale(0.015625)"/>
      <path id="Inter-Regular-6c" d="M 1056 4656 
L 1056 0 
L 494 0 
L 494 4656 
L 1056 4656 
z
" transform="scale(0.015625)"/>
      <path id="Inter-Regular-67" d="M 1909 -1381 
Q 1328 -1381 981 -1168 
Q 634 -956 472 -669 
L 928 -375 
Q 1003 -475 1114 -597 
Q 1225 -719 1414 -805 
Q 1603 -891 1909 -891 
Q 2328 -891 2598 -691 
Q 2869 -491 2869 -59 
L 2869 641 
L 2816 641 
Q 2756 541 2648 403 
Q 2541 266 2339 161 
Q 2138 56 1800 56 
Q 1381 56 1047 254 
Q 713 453 519 834 
Q 325 1216 325 1763 
Q 325 2303 515 2701 
Q 706 3100 1042 3319 
Q 1378 3538 1813 3538 
Q 2150 3538 2351 3427 
Q 2553 3316 2662 3172 
Q 2772 3028 2831 2934 
L 2884 2934 
L 2884 3494 
L 3431 3494 
L 3431 -91 
Q 3431 -541 3228 -827 
Q 3025 -1113 2679 -1247 
Q 2334 -1381 1909 -1381 
z
M 1894 556 
Q 2369 556 2622 879 
Q 2875 1203 2875 1775 
Q 2875 2331 2626 2682 
Q 2378 3034 1894 3034 
Q 1563 3034 1341 2864 
Q 1119 2694 1008 2409 
Q 897 2125 897 1775 
Q 897 1238 1150 897 
Q 1403 556 1894 556 
z
" transform="scale(0.015625)"/>
      <path id="Inter-Regular-77" d="M 1278 0 
L 219 3494 
L 816 3494 
L 1241 1969 
Q 1316 1697 1403 1358 
Q 1491 1019 1575 603 
Q 1659 1003 1742 1340 
Q 1825 1678 1906 1969 
L 2325 3494 
L 2925 3494 
L 3338 1969 
Q 3413 1688 3495 1352 
Q 3578 1016 3659 613 
Q 3747 1013 3833 1348 
Q 3919 1684 3997 1969 
L 4422 3494 
L 5019 3494 
L 3959 0 
L 3400 0 
L 2947 1581 
Q 2859 1881 2779 2200 
Q 2700 2519 2619 2853 
Q 2541 2519 2458 2197 
Q 2375 1875 2291 1581 
L 1838 0 
L 1278 0 
z
" transform="scale(0.015625)"/>
     </defs>
     <use xlink:href="#Inter-Regular-73"/>
     <use xlink:href="#Inter-Regular-68" transform="translate(52.783203 0)"/>
     <use xlink:href="#Inter-Regular-6f" transform="translate(111.914062 0)"/>
     <use xlink:href="#Inter-Regular-72" transform="translate(171.875 0)"/>
     <use xlink:href="#Inter-Regular-74" transform="translate(209.521484 0)"/>
     <use xlink:href="#Inter-Regular-20" transform="translate(242.236328 0)"/>
     <use xlink:href="#Inter-Regular-7a" transform="translate(270.361328 0)"/>
     <use xlink:href="#Inter-Regular-6f" transform="translate(325.585938 0)"/>
     <use xlink:href="#Inter-Regular-6e" transform="translate(385.546875 0)"/>
     <use xlink:href="#Inter-Regular-65" transform="translate(444.628906 0)"/>
     <use xlink:href="#Inter-Regular-20" transform="translate(502.929688 0)"/>
     <use xlink:href="#Inter-Regular-61" transform="translate(531.054688 0)"/>
     <use xlink:href="#Inter-Regular-62" transform="translate(587.207031 0)"/>
     <use xlink:href="#Inter-Regular-6f" transform="translate(648.4375 0)"/>
     <use xlink:href="#Inter-Regular-76" transform="translate(708.398438 0)"/>
     <use xlink:href="#Inter-Regular-65" transform="translate(764.599609 0)"/>
     <use xlink:href="#Inter-Regular-20" transform="translate(822.900391 0)"/>
     <use xlink:href="#Inter-Regular-2b" transform="translate(851.025391 0)"/>
     <use xlink:href="#Inter-Regular-31" transform="translate(917.1875 0)"/>
     <use xlink:href="#Inter-Regular-2e" transform="translate(957.861328 0)"/>
     <use xlink:href="#Inter-Regular-32" transform="translate(986.669922 0)"/>
     <use xlink:href="#Inter-Regular-35" transform="translate(1047.65625 0)"/>
     <use xlink:href="#Inter-Regular-20" transform="translate(1108.447266 0)"/>
     <use xlink:href="#Inter-Regular-20" transform="translate(1136.572266 0)"/>
     <use xlink:href="#Inter-Regular-b7" transform="translate(1164.697266 0)"/>
     <use xlink:href="#Inter-Regular-20" transform="translate(1193.505859 0)"/>
     <use xlink:href="#Inter-Regular-20" transform="translate(1221.630859 0)"/>
     <use xlink:href="#Inter-Regular-6c" transform="translate(1249.755859 0)"/>
     <use xlink:href="#Inter-Regular-6f" transform="translate(1273.974609 0)"/>
     <use xlink:href="#Inter-Regular-6e" transform="translate(1333.935547 0)"/>
     <use xlink:href="#Inter-Regular-67" transform="translate(1393.017578 0)"/>
     <use xlink:href="#Inter-Regular-20" transform="translate(1454.345703 0)"/>
     <use xlink:href="#Inter-Regular-7a" transform="translate(1482.470703 0)"/>
     <use xlink:href="#Inter-Regular-6f" transform="translate(1537.695312 0)"/>
     <use xlink:href="#Inter-Regular-6e" transform="translate(1597.65625 0)"/>
     <use xlink:href="#Inter-Regular-65" transform="translate(1656.738281 0)"/>
     <use xlink:href="#Inter-Regular-20" transform="translate(1715.039062 0)"/>
     <use xlink:href="#Inter-Regular-62" transform="translate(1743.164062 0)"/>
     <use xlink:href="#Inter-Regular-65" transform="translate(1804.394531 0)"/>
     <use xlink:href="#Inter-Regular-6c" transform="translate(1862.695312 0)"/>
     <use xlink:href="#Inter-Regular-6f" transform="translate(1886.914062 0)"/>
     <use xlink:href="#Inter-Regular-77" transform="translate(1946.875 0)"/>
     <use xlink:href="#Inter-Regular-20" transform="translate(2028.710938 0)"/>
     <use xlink:href="#Inter-Regular-2212" transform="translate(2056.835938 0)"/>
     <use xlink:href="#Inter-Regular-31" transform="translate(2122.998047 0)"/>
     <use xlink:href="#Inter-Regular-2e" transform="translate(2163.671875 0)"/>
     <use xlink:href="#Inter-Regular-32" transform="translate(2192.480469 0)"/>
     <use xlink:href="#Inter-Regular-35" transform="translate(2253.466797 0)"/>
    </g>
   </g>
  </g>
  <g id="axes_2">
   <g id="patch_6">
    <path d="M 21.721172 328.816559 
L 468.121172 328.816559 
L 468.121172 196.704219 
L 21.721172 196.704219 
L 21.721172 328.816559 
z
" style="fill: none"/>
   </g>
   <g id="matplotlib.axis_3">
    <g id="xtick_5">
     <g id="line2d_15">
      <g>
       <use xlink:href="#m5d46e5f103" x="109.742515" y="328.816559" style="fill: #1a1a1a; stroke: #1a1a1a; stroke-width: 0.7"/>
      </g>
     </g>
     <g id="text_6">
      <!-- 01 Oct -->
      <g style="fill: #6b6b6b" transform="translate(92.595835 344.182809) scale(0.115 -0.115)">
       <defs>
        <path id="Inter-Regular-4f" d="M 2450 -63 
Q 1853 -63 1386 226 
Q 919 516 650 1052 
Q 381 1588 381 2325 
Q 381 3066 650 3602 
Q 919 4138 1386 4428 
Q 1853 4719 2450 4719 
Q 3047 4719 3512 4428 
Q 3978 4138 4245 3602 
Q 4513 3066 4513 2325 
Q 4513 1588 4245 1052 
Q 3978 516 3512 226 
Q 3047 -63 2450 -63 
z
M 2450 488 
Q 2866 488 3202 698 
Q 3538 909 3736 1320 
Q 3934 1731 3934 2325 
Q 3934 2925 3736 3336 
Q 3538 3747 3202 3958 
Q 2866 4169 2450 4169 
Q 2031 4169 1693 3956 
Q 1356 3744 1157 3333 
Q 959 2922 959 2325 
Q 959 1731 1157 1322 
Q 1356 913 1693 700 
Q 2031 488 2450 488 
z
" transform="scale(0.015625)"/>
        <path id="Inter-Regular-63" d="M 1916 -75 
Q 1441 -75 1083 150 
Q 725 375 525 781 
Q 325 1188 325 1725 
Q 325 2272 525 2680 
Q 725 3088 1083 3313 
Q 1441 3538 1916 3538 
Q 2422 3538 2805 3283 
Q 3188 3028 3331 2572 
L 2791 2419 
Q 2713 2688 2486 2861 
Q 2259 3034 1916 3034 
Q 1566 3034 1341 2851 
Q 1116 2669 1006 2372 
Q 897 2075 897 1725 
Q 897 1381 1006 1086 
Q 1116 791 1341 609 
Q 1566 428 1916 428 
Q 2269 428 2498 608 
Q 2728 788 2806 1072 
L 3344 919 
Q 3203 453 2815 189 
Q 2428 -75 1916 -75 
z
" transform="scale(0.015625)"/>
       </defs>
       <use xlink:href="#Inter-Regular-30"/>
       <use xlink:href="#Inter-Regular-31" transform="translate(63.085938 0)"/>
       <use xlink:href="#Inter-Regular-20" transform="translate(103.759766 0)"/>
       <use xlink:href="#Inter-Regular-4f" transform="translate(131.884766 0)"/>
       <use xlink:href="#Inter-Regular-63" transform="translate(208.349609 0)"/>
       <use xlink:href="#Inter-Regular-74" transform="translate(265.478516 0)"/>
      </g>
     </g>
    </g>
    <g id="xtick_6">
     <g id="line2d_16">
      <g>
       <use xlink:href="#m5d46e5f103" x="204.565122" y="328.816559" style="fill: #1a1a1a; stroke: #1a1a1a; stroke-width: 0.7"/>
      </g>
     </g>
     <g id="text_7">
      <!-- 08 Oct -->
      <g style="fill: #6b6b6b" transform="translate(186.200161 344.182809) scale(0.115 -0.115)">
       <defs>
        <path id="Inter-Regular-38" d="M 1978 -63 
Q 1506 -63 1145 104 
Q 784 272 582 565 
Q 381 859 381 1238 
Q 381 1531 500 1782 
Q 619 2034 825 2203 
Q 1031 2372 1291 2419 
L 1291 2444 
Q 950 2531 750 2822 
Q 550 3113 550 3481 
Q 550 3838 734 4117 
Q 919 4397 1241 4558 
Q 1563 4719 1978 4719 
Q 2388 4719 2709 4558 
Q 3031 4397 3217 4117 
Q 3403 3838 3403 3481 
Q 3403 3113 3201 2822 
Q 3000 2531 2669 2444 
L 2669 2419 
Q 2922 2372 3128 2203 
Q 3334 2034 3456 1782 
Q 3578 1531 3578 1238 
Q 3578 859 3373 565 
Q 3169 272 2808 104 
Q 2447 -63 1978 -63 
z
M 1978 453 
Q 2441 453 2712 676 
Q 2984 900 2984 1269 
Q 2984 1528 2853 1726 
Q 2722 1925 2494 2039 
Q 2266 2153 1978 2153 
Q 1538 2153 1252 1904 
Q 966 1656 966 1269 
Q 966 900 1236 676 
Q 1506 453 1978 453 
z
M 1978 2650 
Q 2347 2650 2587 2867 
Q 2828 3084 2828 3438 
Q 2828 3788 2593 3997 
Q 2359 4206 1978 4206 
Q 1591 4206 1358 3997 
Q 1125 3788 1125 3438 
Q 1125 3084 1362 2867 
Q 1600 2650 1978 2650 
z
" transform="scale(0.015625)"/>
       </defs>
       <use xlink:href="#Inter-Regular-30"/>
       <use xlink:href="#Inter-Regular-38" transform="translate(63.085938 0)"/>
       <use xlink:href="#Inter-Regular-20" transform="translate(124.951172 0)"/>
       <use xlink:href="#Inter-Regular-4f" transform="translate(153.076172 0)"/>
       <use xlink:href="#Inter-Regular-63" transform="translate(229.541016 0)"/>
       <use xlink:href="#Inter-Regular-74" transform="translate(286.669922 0)"/>
      </g>
     </g>
    </g>
    <g id="xtick_7">
     <g id="line2d_17">
      <g>
       <use xlink:href="#m5d46e5f103" x="299.387729" y="328.816559" style="fill: #1a1a1a; stroke: #1a1a1a; stroke-width: 0.7"/>
      </g>
     </g>
     <g id="text_8">
      <!-- 15 Oct -->
      <g style="fill: #6b6b6b" transform="translate(282.37312 344.182809) scale(0.115 -0.115)">
       <use xlink:href="#Inter-Regular-31"/>
       <use xlink:href="#Inter-Regular-35" transform="translate(40.673828 0)"/>
       <use xlink:href="#Inter-Regular-20" transform="translate(101.464844 0)"/>
       <use xlink:href="#Inter-Regular-4f" transform="translate(129.589844 0)"/>
       <use xlink:href="#Inter-Regular-63" transform="translate(206.054688 0)"/>
       <use xlink:href="#Inter-Regular-74" transform="translate(263.183594 0)"/>
      </g>
     </g>
    </g>
    <g id="xtick_8">
     <g id="line2d_18">
      <g>
       <use xlink:href="#m5d46e5f103" x="394.210336" y="328.816559" style="fill: #1a1a1a; stroke: #1a1a1a; stroke-width: 0.7"/>
      </g>
     </g>
     <g id="text_9">
      <!-- 22 Oct -->
      <g style="fill: #6b6b6b" transform="translate(376.016977 344.182809) scale(0.115 -0.115)">
       <use xlink:href="#Inter-Regular-32"/>
       <use xlink:href="#Inter-Regular-32" transform="translate(60.986328 0)"/>
       <use xlink:href="#Inter-Regular-20" transform="translate(121.972656 0)"/>
       <use xlink:href="#Inter-Regular-4f" transform="translate(150.097656 0)"/>
       <use xlink:href="#Inter-Regular-63" transform="translate(226.5625 0)"/>
       <use xlink:href="#Inter-Regular-74" transform="translate(283.691406 0)"/>
      </g>
     </g>
    </g>
   </g>
   <g id="matplotlib.axis_4">
    <g id="ytick_4">
     <g id="line2d_19">
      <path d="M 21.721172 303.41034 
L 468.121172 303.41034 
" clip-path="url(#p6850faed86)" style="fill: none; stroke: #e4e2dd; stroke-width: 0.8; stroke-linecap: square"/>
     </g>
     <g id="line2d_20"/>
     <g id="text_10">
      <!-- −2 -->
      <g style="fill: #6b6b6b" transform="translate(3.6 307.593465) scale(0.115 -0.115)">
       <use xlink:href="#Inter-Regular-2212"/>
       <use xlink:href="#Inter-Regular-32" transform="translate(66.162109 0)"/>
      </g>
     </g>
    </g>
    <g id="ytick_5">
     <g id="line2d_21">
      <path d="M 21.721172 262.760389 
L 468.121172 262.760389 
" clip-path="url(#p6850faed86)" style="fill: none; stroke: #e4e2dd; stroke-width: 0.8; stroke-linecap: square"/>
     </g>
     <g id="line2d_22"/>
     <g id="text_11">
      <!-- 0 -->
      <g style="fill: #6b6b6b" transform="translate(10.965391 266.943514) scale(0.115 -0.115)">
       <use xlink:href="#Inter-Regular-30"/>
      </g>
     </g>
    </g>
    <g id="ytick_6">
     <g id="line2d_23">
      <path d="M 21.721172 222.110438 
L 468.121172 222.110438 
" clip-path="url(#p6850faed86)" style="fill: none; stroke: #e4e2dd; stroke-width: 0.8; stroke-linecap: square"/>
     </g>
     <g id="line2d_24"/>
     <g id="text_12">
      <!-- 2 -->
      <g style="fill: #6b6b6b" transform="translate(11.207969 226.293563) scale(0.115 -0.115)">
       <use xlink:href="#Inter-Regular-32"/>
      </g>
     </g>
    </g>
   </g>
   <g id="patch_7">
    <path d="M 21.721172 237.35417 
L 468.121172 237.35417 
L 468.121172 181.460487 
L 21.721172 181.460487 
z
" clip-path="url(#p6850faed86)" style="fill: #c8323c; opacity: 0.08"/>
   </g>
   <g id="patch_8">
    <path d="M 21.721172 344.060291 
L 468.121172 344.060291 
L 468.121172 288.166608 
L 21.721172 288.166608 
z
" clip-path="url(#p6850faed86)" style="fill: #3b7dd8; opacity: 0.08"/>
   </g>
   <g id="line2d_25">
    <path d="M 21.721172 237.35417 
L 468.121172 237.35417 
" clip-path="url(#p6850faed86)" style="fill: none; stroke-dasharray: 2.4,1.6; stroke-dashoffset: 0; stroke: #c8323c; stroke-width: 0.8"/>
   </g>
   <g id="line2d_26">
    <path d="M 21.721172 288.166608 
L 468.121172 288.166608 
" clip-path="url(#p6850faed86)" style="fill: none; stroke-dasharray: 2.4,1.6; stroke-dashoffset: 0; stroke: #3b7dd8; stroke-width: 0.8"/>
   </g>
   <g id="line2d_27">
    <path d="M 21.721172 262.760389 
L 468.121172 262.760389 
" clip-path="url(#p6850faed86)" style="fill: none; stroke: #8a8a8a; stroke-width: 0.8; stroke-linecap: square"/>
   </g>
   <g id="line2d_28">
    <path d="M 42.012081 257.413647 
L 42.576501 247.676321 
L 43.140922 257.890083 
L 43.705342 258.502548 
L 44.269762 267.526287 
L 44.834182 258.233733 
L 45.398603 266.316227 
L 45.963023 267.784512 
L 46.527443 258.120932 
L 47.091863 246.244647 
L 47.656284 239.02609 
L 48.220704 241.36334 
L 48.785124 239.343969 
L 49.349545 240.432043 
L 49.913965 239.793884 
L 50.478385 228.117026 
L 51.042805 223.713747 
L 52.171646 235.207068 
L 52.736066 228.965916 
L 53.300487 227.62729 
L 53.864907 227.464037 
L 54.429327 228.470244 
L 54.993747 232.084917 
L 55.558168 227.456756 
L 56.122588 223.897987 
L 56.687008 224.093724 
L 57.251429 224.609043 
L 57.815849 229.734492 
L 58.380269 229.458999 
L 58.944689 232.13659 
L 59.50911 232.166972 
L 60.63795 236.184491 
L 61.202371 231.193974 
L 61.766791 228.285075 
L 62.331211 230.152167 
L 62.895631 230.646567 
L 63.460052 228.142982 
L 64.024472 227.029262 
L 65.153312 240.281555 
L 65.717733 244.323769 
L 66.282153 245.526921 
L 66.846573 248.307322 
L 67.410994 249.723747 
L 67.975414 244.801584 
L 68.539834 243.772651 
L 69.104254 248.375163 
L 69.668675 249.938295 
L 70.233095 256.490477 
L 71.361936 249.09139 
L 71.926356 248.525614 
L 72.490776 248.159587 
L 73.055196 250.731388 
L 73.619617 250.160253 
L 74.184037 250.065262 
L 74.748457 248.951212 
L 75.312878 250.614103 
L 75.877298 251.444159 
L 76.441718 251.153475 
L 77.006138 252.97802 
L 77.570559 257.665241 
L 78.134979 255.806545 
L 78.699399 259.590786 
L 79.263819 256.794217 
L 79.82824 258.965309 
L 80.95708 260.694564 
L 81.521501 260.526793 
L 82.085921 262.790504 
L 82.650341 264.090509 
L 83.214761 263.399636 
L 84.343602 262.774258 
L 84.908022 260.538949 
L 85.472443 260.560502 
L 86.036863 260.867716 
L 86.601283 258.929406 
L 87.165703 259.768476 
L 87.730124 260.8474 
L 88.294544 260.833225 
L 88.858964 270.514291 
L 89.987805 271.360041 
L 90.552225 275.715006 
L 91.116645 277.374069 
L 91.681066 280.063953 
L 92.245486 285.829938 
L 92.809906 286.567237 
L 93.374327 284.455188 
L 93.938747 283.278809 
L 94.503167 279.612392 
L 95.067587 282.607161 
L 95.632008 278.839498 
L 96.196428 276.987578 
L 96.760848 263.190837 
L 97.325268 261.586178 
L 97.889689 254.025757 
L 98.454109 249.769718 
L 99.018529 249.160687 
L 100.14737 243.420325 
L 100.71179 241.676266 
L 101.27621 243.736734 
L 101.840631 242.891063 
L 102.405051 243.294467 
L 102.969471 243.132803 
L 103.533892 241.740813 
L 104.098312 249.915001 
L 104.662732 249.741642 
L 105.791573 245.450409 
L 106.355993 246.849968 
L 106.920413 243.115255 
L 107.484834 244.156791 
L 108.049254 250.900133 
L 108.613674 251.381572 
L 109.178094 253.781314 
L 109.742515 257.259028 
L 110.306935 251.792722 
L 110.871355 255.080559 
L 111.435775 254.959848 
L 112.000196 251.681034 
L 112.564616 249.863679 
L 113.129036 250.199198 
L 113.693457 250.353869 
L 114.257877 248.704381 
L 114.822297 252.497839 
L 115.386717 251.701509 
L 115.951138 249.270937 
L 116.515558 255.219797 
L 117.644399 250.033682 
L 118.208819 248.957499 
L 118.773239 256.67995 
L 119.337659 252.255152 
L 119.90208 256.545523 
L 120.4665 253.959986 
L 121.03092 256.510402 
L 121.595341 262.961155 
L 122.159761 258.230415 
L 122.724181 261.36687 
L 123.288601 258.331555 
L 123.853022 259.803621 
L 124.417442 259.703047 
L 125.546283 257.458469 
L 126.110703 258.518548 
L 126.675123 261.812475 
L 127.239543 262.550193 
L 127.803964 266.743292 
L 128.368384 262.7469 
L 129.497224 264.258992 
L 130.061645 266.080878 
L 130.626065 269.723132 
L 131.190485 272.509295 
L 131.754906 273.150503 
L 132.319326 269.354364 
L 132.883746 264.246192 
L 133.448166 264.335448 
L 134.012587 267.146805 
L 134.577007 271.397221 
L 135.141427 277.096805 
L 135.705848 269.666417 
L 136.270268 270.887263 
L 136.834688 264.973782 
L 137.399108 263.412719 
L 137.963529 267.27703 
L 138.527949 266.489536 
L 139.092369 266.337571 
L 139.65679 265.067979 
L 140.22121 262.869063 
L 140.78563 265.594416 
L 141.35005 263.617464 
L 141.914471 263.802843 
L 142.478891 262.897473 
L 143.043311 263.19758 
L 143.607731 265.101677 
L 144.172152 266.325291 
L 144.736572 270.2707 
L 145.300992 268.030645 
L 145.865413 268.946714 
L 146.429833 270.505019 
L 146.994253 272.608653 
L 147.558673 277.412132 
L 148.687514 275.996421 
L 149.251934 271.692567 
L 150.380775 280.678303 
L 150.945195 281.04464 
L 151.509615 280.525588 
L 152.074036 274.594577 
L 152.638456 274.546488 
L 153.202876 274.753157 
L 153.767297 271.775803 
L 154.896137 280.921424 
L 155.460557 280.224865 
L 156.024978 281.345834 
L 156.589398 283.631455 
L 157.153818 290.148157 
L 157.718239 290.77902 
L 158.282659 290.632857 
L 158.847079 287.054888 
L 159.411499 286.990285 
L 160.54034 279.970882 
L 161.10476 280.321329 
L 161.66918 281.554004 
L 162.233601 285.151253 
L 162.798021 280.081685 
L 163.926862 289.746247 
L 164.491282 291.670892 
L 165.055702 294.638208 
L 165.620122 295.041031 
L 166.184543 296.041156 
L 166.748963 292.611893 
L 167.313383 299.300061 
L 167.877804 300.158364 
L 168.442224 296.882293 
L 169.006644 291.215914 
L 169.571064 286.79476 
L 170.135485 291.556165 
L 170.699905 291.258798 
L 171.828746 296.601874 
L 172.393166 291.768656 
L 172.957586 297.617197 
L 173.522006 293.782857 
L 174.086427 294.189066 
L 174.650847 294.410916 
L 175.215267 286.488965 
L 176.344108 281.279142 
L 176.908528 288.029237 
L 177.472948 289.476536 
L 178.037369 277.820773 
L 178.601789 284.701583 
L 179.166209 282.693086 
L 179.730629 288.099324 
L 180.29505 285.296866 
L 180.85947 284.935703 
L 181.42389 283.401735 
L 182.552731 265.148433 
L 183.117151 266.422455 
L 183.681571 276.038398 
L 184.245992 275.359157 
L 184.810412 275.449275 
L 185.374832 259.92357 
L 185.939253 259.682722 
L 186.503673 257.64161 
L 187.632513 263.273591 
L 188.196934 257.444884 
L 188.761354 253.100062 
L 189.325774 245.223084 
L 189.890195 242.049839 
L 190.454615 246.813023 
L 191.019035 246.257545 
L 191.583455 244.984181 
L 192.147876 251.350638 
L 192.712296 248.070097 
L 193.276716 241.547301 
L 193.841136 252.683599 
L 194.405557 253.836018 
L 194.969977 255.246952 
L 195.534397 248.507205 
L 196.098818 261.5186 
L 196.663238 261.443521 
L 197.227658 260.717939 
L 197.792078 267.942378 
L 198.356499 261.887752 
L 198.920919 246.898012 
L 199.485339 239.291001 
L 200.04976 241.803628 
L 200.61418 243.801045 
L 201.1786 230.201958 
L 201.74302 235.394321 
L 202.307441 242.734661 
L 202.871861 243.353917 
L 203.436281 236.083331 
L 204.000702 239.346486 
L 204.565122 250.588274 
L 205.129542 257.390537 
L 205.693962 261.00289 
L 206.258383 261.156714 
L 206.822803 263.541989 
L 207.387223 268.959224 
L 207.951643 270.282491 
L 209.080484 275.472018 
L 209.644904 272.374308 
L 210.209325 279.414902 
L 210.773745 285.033408 
L 211.338165 284.809296 
L 212.467006 280.684698 
L 213.031426 283.824425 
L 213.595846 284.909226 
L 214.160267 288.534779 
L 214.724687 281.027471 
L 215.289107 291.610099 
L 215.853527 285.951551 
L 216.417948 284.566792 
L 216.982368 281.484439 
L 217.546788 287.535435 
L 218.111209 287.2715 
L 218.675629 285.251216 
L 219.240049 284.825325 
L 220.36889 296.625054 
L 220.93331 296.685663 
L 221.49773 292.908497 
L 222.062151 291.780371 
L 222.626571 293.121888 
L 223.190991 290.08479 
L 223.755411 293.853324 
L 224.319832 304.208763 
L 224.884252 299.342926 
L 225.448672 299.65283 
L 226.013092 302.283967 
L 226.577513 305.537992 
L 227.141933 314.542113 
L 227.706353 319.243923 
L 228.835194 320.915619 
L 229.399614 314.793662 
L 229.964034 319.090745 
L 230.528455 319.896508 
L 231.092875 321.811547 
L 231.657295 317.501207 
L 232.221716 303.568849 
L 232.786136 310.370207 
L 233.350556 299.971443 
L 234.479397 292.802681 
L 235.043817 290.157832 
L 235.608237 288.798826 
L 236.172658 290.779844 
L 236.737078 293.183617 
L 237.301498 293.205024 
L 237.865918 296.151835 
L 238.430339 295.841046 
L 238.994759 295.893272 
L 239.559179 298.113773 
L 240.123599 298.469594 
L 240.68802 298.523923 
L 241.25244 299.143366 
L 241.81686 300.030855 
L 242.381281 300.626655 
L 242.945701 302.099513 
L 243.510121 299.974629 
L 244.074541 301.200962 
L 244.638962 305.350993 
L 245.203382 306.29853 
L 245.767802 305.029409 
L 246.332223 305.395996 
L 246.896643 302.118248 
L 247.461063 300.202751 
L 248.025483 304.202168 
L 248.589904 297.492875 
L 249.154324 298.754445 
L 250.283165 281.396694 
L 250.847585 282.297772 
L 251.412005 279.792593 
L 251.976425 275.26133 
L 252.540846 273.774423 
L 253.105266 273.264476 
L 253.669686 270.936058 
L 254.798527 263.793101 
L 255.362947 266.934364 
L 255.927367 264.111675 
L 256.491788 270.0813 
L 257.056208 269.969334 
L 257.620628 264.379048 
L 258.185048 272.946055 
L 258.749469 270.830753 
L 259.313889 265.57711 
L 259.878309 264.913988 
L 260.44273 261.918702 
L 261.00715 256.820664 
L 261.57157 260.514464 
L 262.13599 261.003086 
L 262.700411 263.989683 
L 263.264831 264.653467 
L 263.829251 262.823936 
L 264.393672 259.564804 
L 264.958092 257.864773 
L 265.522512 263.685016 
L 266.086932 265.493613 
L 266.651353 265.223454 
L 267.215773 257.451267 
L 267.780193 255.179497 
L 268.344614 249.911403 
L 268.909034 250.027812 
L 269.473454 250.704802 
L 270.037874 250.223011 
L 270.602295 258.299189 
L 271.166715 257.802233 
L 271.731135 261.065509 
L 272.295555 257.741055 
L 272.859976 256.203859 
L 273.424396 260.055976 
L 273.988816 260.674073 
L 274.553237 266.336458 
L 275.682077 262.979888 
L 276.246497 272.854862 
L 276.810918 274.707593 
L 277.375338 279.877355 
L 277.939758 275.96565 
L 278.504179 276.874759 
L 279.068599 281.071715 
L 279.633019 282.870977 
L 280.197439 279.799677 
L 280.76186 271.771119 
L 281.32628 274.355274 
L 281.8907 272.321965 
L 282.455121 268.526359 
L 283.019541 266.792568 
L 283.583961 266.830845 
L 284.148381 259.120543 
L 284.712802 259.543702 
L 285.277222 260.874932 
L 285.841642 261.84988 
L 286.406063 260.016152 
L 286.970483 251.736122 
L 287.534903 251.761004 
L 288.099323 251.546206 
L 288.663744 251.647628 
L 289.792584 263.726812 
L 290.357004 261.755073 
L 290.921425 264.414934 
L 291.485845 270.892013 
L 292.050265 269.501979 
L 292.614686 258.489218 
L 293.743526 251.180711 
L 294.307946 251.852224 
L 294.872367 250.209613 
L 295.436787 251.4362 
L 296.565628 246.780402 
L 297.130048 246.991311 
L 297.694468 248.605183 
L 298.258888 247.098953 
L 298.823309 249.366383 
L 299.387729 250.850308 
L 299.952149 249.502789 
L 300.51657 252.938089 
L 301.08099 243.953825 
L 301.64541 245.638428 
L 302.20983 247.674541 
L 302.774251 246.073196 
L 303.338671 246.663284 
L 303.903091 246.07902 
L 304.467511 239.714753 
L 305.031932 240.13714 
L 305.596352 241.647081 
L 306.160772 244.670365 
L 306.725193 243.242732 
L 307.289613 238.250311 
L 307.854033 239.572922 
L 308.418453 244.890632 
L 308.982874 242.829326 
L 309.547294 246.713259 
L 310.111714 245.374079 
L 310.676135 248.590448 
L 311.240555 247.37667 
L 311.804975 245.845694 
L 312.369395 247.68313 
L 312.933816 245.068875 
L 313.498236 248.102896 
L 314.062656 249.871168 
L 314.627077 250.582905 
L 315.191497 253.214327 
L 315.755917 250.758697 
L 316.884758 252.846631 
L 317.449178 251.294012 
L 318.013598 241.483067 
L 318.578019 247.324911 
L 319.142439 250.085943 
L 319.706859 250.991151 
L 320.271279 252.482696 
L 320.8357 249.613898 
L 321.40012 258.919587 
L 321.96454 262.176505 
L 322.52896 264.481804 
L 323.093381 265.407593 
L 323.657801 263.459507 
L 324.222221 265.98463 
L 324.786642 266.030971 
L 325.351062 263.489416 
L 325.915482 263.613593 
L 326.479902 262.829592 
L 327.044323 256.086996 
L 327.608743 259.108581 
L 328.173163 257.363921 
L 328.737584 254.649907 
L 329.302004 256.000411 
L 329.866424 255.386713 
L 330.430844 252.667384 
L 330.995265 248.20541 
L 331.559685 257.406926 
L 332.124105 255.844328 
L 332.688526 254.892808 
L 333.252946 260.321551 
L 333.817366 256.740153 
L 334.381786 254.036008 
L 334.946207 251.887474 
L 335.510627 256.636762 
L 336.075047 251.550348 
L 336.639467 251.605783 
L 337.203888 251.883832 
L 337.768308 252.495088 
L 338.332728 248.356586 
L 338.897149 245.210608 
L 339.461569 238.5134 
L 340.025989 237.923396 
L 340.590409 241.716881 
L 341.15483 238.075079 
L 341.71925 240.050511 
L 342.28367 235.850171 
L 342.848091 239.940156 
L 343.412511 239.600458 
L 343.976931 245.936365 
L 344.541351 248.367145 
L 345.105772 248.496637 
L 345.670192 249.637201 
L 346.234612 256.999048 
L 346.799033 257.828567 
L 347.363453 257.336892 
L 347.927873 251.461106 
L 349.056714 250.822014 
L 349.621134 251.576825 
L 350.185554 250.208328 
L 350.749975 255.896194 
L 351.314395 252.320196 
L 351.878815 258.661931 
L 352.443235 256.593852 
L 353.007656 257.149455 
L 353.572076 258.636338 
L 354.136496 256.083897 
L 354.700916 254.106574 
L 355.265337 255.754923 
L 355.829757 259.719626 
L 356.394177 258.042703 
L 356.958598 253.510553 
L 357.523018 254.10219 
L 358.087438 252.8005 
L 358.651858 253.191221 
L 359.216279 257.781252 
L 359.780699 259.512289 
L 360.345119 258.769102 
L 360.90954 260.887858 
L 361.47396 257.320426 
L 362.03838 255.980602 
L 362.6028 261.089151 
L 363.167221 259.41592 
L 363.731641 260.981318 
L 364.296061 259.735139 
L 364.860482 254.493937 
L 365.989322 260.300791 
L 366.553742 252.410098 
L 367.118163 254.907446 
L 367.682583 249.650743 
L 368.247003 261.253665 
L 368.811423 261.153464 
L 369.375844 265.201162 
L 369.940264 262.373384 
L 370.504684 264.228871 
L 371.633525 266.706713 
L 372.197945 272.359057 
L 372.762365 265.709079 
L 373.891206 275.56084 
L 374.455626 266.223675 
L 375.020047 259.201232 
L 375.584467 259.072707 
L 376.148887 259.526285 
L 376.713307 264.142772 
L 377.277728 261.871233 
L 377.842148 258.638521 
L 378.406568 261.112004 
L 378.970989 255.576795 
L 379.535409 255.065659 
L 380.099829 254.917991 
L 380.664249 256.883914 
L 381.22867 259.449402 
L 381.79309 256.961359 
L 382.921931 256.154715 
L 383.486351 259.219384 
L 384.050771 258.412076 
L 384.615191 258.522407 
L 385.179612 255.778863 
L 385.744032 252.334426 
L 386.308452 244.592776 
L 386.872872 241.126503 
L 387.437293 241.672622 
L 388.566133 244.216816 
L 389.130554 248.283765 
L 389.694974 244.607937 
L 390.259394 245.313171 
L 390.823814 245.024138 
L 391.388235 245.509437 
L 391.952655 245.350869 
L 392.517075 245.420316 
L 393.081496 249.446632 
L 393.645916 249.250753 
L 394.210336 251.624908 
L 394.774756 251.46736 
L 395.339177 254.826122 
L 395.903597 251.472517 
L 396.468017 249.216953 
L 397.032438 248.726935 
L 397.596858 251.01067 
L 398.161278 248.702023 
L 398.725698 248.64386 
L 399.290119 251.311637 
L 399.854539 247.963074 
L 400.983379 256.177708 
L 401.5478 257.702406 
L 402.11222 258.36441 
L 402.67664 259.368198 
L 403.805481 268.868234 
L 404.369901 268.397776 
L 404.934321 270.247994 
L 405.498742 269.565247 
L 406.063162 273.202458 
L 406.627582 272.121263 
L 407.756423 278.050591 
L 408.320843 278.074908 
L 408.885263 278.705548 
L 409.449684 279.019971 
L 410.014104 281.170883 
L 410.578524 282.27407 
L 411.142945 270.563405 
L 411.707365 267.076425 
L 412.836205 274.54442 
L 413.400626 271.729688 
L 413.965046 273.834934 
L 414.529466 279.580221 
L 415.093887 282.660101 
L 416.222727 275.439509 
L 416.787147 272.978611 
L 417.351568 269.589589 
L 417.915988 263.54762 
L 418.480408 263.780736 
L 419.044828 267.318053 
L 419.609249 261.18054 
L 420.173669 263.173766 
L 420.738089 259.458148 
L 421.30251 253.69087 
L 421.86693 255.089968 
L 422.43135 251.581083 
L 423.560191 257.227078 
L 424.124611 258.496285 
L 424.689031 260.746943 
L 425.253452 262.465002 
L 425.817872 262.715043 
L 426.382292 266.09056 
L 426.946712 267.959003 
L 427.511133 268.939201 
L 428.075553 260.2118 
L 429.204394 246.991022 
L 429.768814 242.380096 
L 430.333234 239.483599 
L 431.462075 241.819926 
L 432.026495 240.934616 
L 432.590915 238.675383 
L 433.155335 240.681759 
L 433.719756 240.910208 
L 434.284176 241.453207 
L 434.848596 241.263063 
L 435.413017 240.177723 
L 435.977437 243.446973 
L 436.541857 244.669697 
L 437.106277 248.421307 
L 437.670698 249.475152 
L 438.235118 255.345214 
L 438.799538 257.533559 
L 439.363959 256.553255 
L 439.928379 256.539845 
L 441.057219 253.253191 
L 441.62164 256.911317 
L 442.18606 256.660575 
L 442.75048 258.583445 
L 443.314901 262.923401 
L 443.879321 260.16753 
L 444.443741 258.889498 
L 445.008161 263.381811 
L 445.572582 260.807965 
L 446.137002 266.666095 
L 446.701422 267.191042 
L 447.265843 265.546476 
L 447.830263 263.178589 
L 447.830263 263.178589 
" clip-path="url(#p6850faed86)" style="fill: none; stroke: #1a1a1a; stroke-width: 1.1; stroke-linecap: square"/>
   </g>
   <g id="patch_9">
    <path d="M 21.721172 328.816559 
L 468.121172 328.816559 
" style="fill: none; stroke: #1a1a1a; stroke-width: 0.8; stroke-linejoin: miter; stroke-linecap: square"/>
   </g>
   <g id="text_13">
    <!-- ETH -->
    <g style="fill: #1a1a1a" transform="translate(21.721172 191.40916) scale(0.13 -0.13)">
     <defs>
      <path id="Inter-SemiBold-45" d="M 469 0 
L 469 4656 
L 3494 4656 
L 3494 3953 
L 1303 3953 
L 1303 2697 
L 3331 2697 
L 3331 2003 
L 1303 2003 
L 1303 703 
L 3506 703 
L 3506 0 
L 469 0 
z
" transform="scale(0.015625)"/>
      <path id="Inter-SemiBold-48" d="M 469 0 
L 469 4656 
L 1303 4656 
L 1303 2731 
L 3469 2731 
L 3469 4656 
L 4303 4656 
L 4303 0 
L 3469 0 
L 3469 2028 
L 1303 2028 
L 1303 0 
L 469 0 
z
" transform="scale(0.015625)"/>
     </defs>
     <use xlink:href="#Inter-SemiBold-45"/>
     <use xlink:href="#Inter-SemiBold-54" transform="translate(60.546875 0)"/>
     <use xlink:href="#Inter-SemiBold-48" transform="translate(126.5625 0)"/>
    </g>
   </g>
  </g>
 </g>
 <defs>
  <clipPath id="p783218555a">
   <rect x="21.721172" y="18.352559" width="446.4" height="132.11234"/>
  </clipPath>
  <clipPath id="p6850faed86">
   <rect x="21.721172" y="196.704219" width="446.4" height="132.11234"/>
  </clipPath>
 </defs>
</svg>
